<?xml version="1.0" encoding="UTF-8" standalone="no"?>
<svg
   xmlns:dc="http://purl.org/dc/elements/1.1/"
   xmlns:cc="http://creativecommons.org/ns#"
   xmlns:rdf="http://www.w3.org/1999/02/22-rdf-syntax-ns#"
   xmlns:svg="http://www.w3.org/2000/svg"
   xmlns="http://www.w3.org/2000/svg"
   xmlns:sodipodi="http://sodipodi.sourceforge.net/DTD/sodipodi-0.dtd"
   xmlns:inkscape="http://www.inkscape.org/namespaces/inkscape"
   sodipodi:docname="drawing-1.svg"
   inkscape:version="1.0 (4035a4fb49, 2020-05-01)"
   id="svg2784"
   version="1.1"
   viewBox="0 0 24.000002 24"
   height="90.708664"
   width="90.708672">
  <defs
     id="defs2778">
    <filter
       height="1.0013813"
       y="-0.00069065856"
       width="1.0013835"
       x="-0.00069174196"
       id="filter3453"
       style="color-interpolation-filters:sRGB"
       inkscape:collect="always">
      <feGaussianBlur
         id="feGaussianBlur3455"
         stdDeviation="0.025964879"
         inkscape:collect="always" />
    </filter>
    <filter
       inkscape:collect="always"
       style="color-interpolation-filters:sRGB"
       id="filter3453-2"
       x="-0.00069174194"
       width="1.0013835"
       y="-0.00069065858"
       height="1.0013813">
      <feGaussianBlur
         inkscape:collect="always"
         stdDeviation="0.025964879"
         id="feGaussianBlur3455-7" />
    </filter>
  </defs>
  <sodipodi:namedview
     inkscape:window-maximized="0"
     inkscape:window-y="64"
     inkscape:window-x="2145"
     inkscape:window-height="864"
     inkscape:window-width="1261"
     inkscape:snap-others="true"
     fit-margin-bottom="0"
     fit-margin-right="0"
     fit-margin-left="0"
     fit-margin-top="0"
     lock-margins="false"
     units="px"
     showgrid="false"
     inkscape:document-rotation="0"
     inkscape:current-layer="layer1"
     inkscape:document-units="px"
     inkscape:cy="107.20393"
     inkscape:cx="-5.257092"
     inkscape:zoom="1.979899"
     inkscape:pageshadow="2"
     inkscape:pageopacity="0"
     borderopacity="1.0"
     bordercolor="#666666"
     pagecolor="#ffffff"
     id="base" />
  <metadata
     id="metadata2781">
    <rdf:RDF>
      <cc:Work
         rdf:about="">
        <dc:format>image/svg+xml</dc:format>
        <dc:type
           rdf:resource="http://purl.org/dc/dcmitype/StillImage" />
        <dc:title></dc:title>
      </cc:Work>
    </rdf:RDF>
  </metadata>
  <g
     style="display:inline"
     transform="translate(-79.223807,-118.53333)"
     id="layer1"
     inkscape:groupmode="layer"
     inkscape:label="Layer 1">
    <path
       style="stroke-width:0.999999"
       d="m 98.223837,118.53333 h -14.00002 c -2.76102,0 -5.00001,2.23903 -5.00001,5.00001 v 14.00002 c 0,2.76098 2.23899,4.99997 5.00001,4.99997 h 14.00002 c 2.761963,0 4.999973,-2.23899 4.999973,-4.99997 v -14.00002 c 0,-2.76098 -2.23801,-5.00001 -4.999973,-5.00001 z m -3,7.00003 h -1.92401 c -0.61501,0 -1.07599,0.25209 -1.07599,0.88898 v 1.11099 h 3 l -0.23812,3 h -2.76196 v 8.00001 h -3 v -8.00001 h -2.00001 v -3 h 2.00001 v -1.92299 c 0,-2.02201 1.06397,-3.07698 3.46099,-3.07698 h 2.53901 z"
       id="path2" />
    <path
       transform="matrix(0.26458333,0,0,0.26458333,79.223807,118.53333)"
       id="path2792"
       d="M 14.188345,89.745428 C 8.6115146,88.251933 3.2403645,83.261764 1.2500928,77.7249 0.39492849,75.345865 0.30444377,72.836303 0.15498327,47.352396 0.04503322,28.605268 0.17385539,18.52406 0.55119106,16.346442 1.9042389,8.5379536 7.1073025,2.7891982 14.546448,0.88337763 17.22701,0.19664936 21.585834,0.10840844 46.60199,0.23443861 l 28.953122,0.14586441 2.921654,1.17924558 c 4.094643,1.6526912 8.399449,5.7601458 10.260362,9.7899874 l 1.465196,3.172903 v 30.809652 30.809653 l -1.570015,3.282996 c -1.987581,4.156156 -5.101533,7.26728 -9.289125,9.280675 L 76.060188,90.28388 46.513226,90.386622 C 21.846982,90.472394 16.507393,90.36647 14.188345,89.745428 Z M 49.543684,60.736918 V 45.584629 h 5.041141 c 5.84948,0 5.3127,0.639579 5.828585,-6.944798 l 0.317789,-4.671956 h -5.59376 -5.593755 v -2.61188 c 0,-3.991261 0.670721,-4.459188 6.391735,-4.459188 h 4.719943 v -6.060915 -6.060915 h -5.73944 c -9.879405,0 -13.847701,1.404415 -16.056872,5.682671 -0.888672,1.720993 -1.153312,3.271353 -1.336225,7.828119 l -0.228085,5.682108 h -3.724515 -3.724516 v 5.808377 5.808377 h 3.788072 3.788072 v 15.152289 15.152288 h 6.060915 6.060916 z"
       style="fill:#ffffff;fill-opacity:1;stroke-width:0.505;stroke-miterlimit:4;stroke-dasharray:none;filter:url(#filter3453)" />
  </g>
</svg>
